# Original demo asset. CC0. Only COL_trunk participates in collision.
o Trunk
v -0.25 0 0.25 0.44 0.25 0.10
v 0.25 0 0.25 0.44 0.25 0.10
v 0.25 0 -0.25 0.44 0.25 0.10
v -0.25 0 -0.25 0.44 0.25 0.10
v -0.25 2.5 0.25 0.53 0.32 0.15
v 0.25 2.5 0.25 0.53 0.32 0.15
v 0.25 2.5 -0.25 0.53 0.32 0.15
v -0.25 2.5 -0.25 0.53 0.32 0.15
usemtl bark
f 1 2 6 5
f 2 3 7 6
f 3 4 8 7
f 4 1 5 8
f 5 6 7 8
f 4 3 2 1
o Crown
v -1.7 2 1.7 0.17 0.42 0.18
v 1.7 2 1.7 0.18 0.46 0.20
v 1.7 2 -1.7 0.22 0.51 0.23
v -1.7 2 -1.7 0.20 0.47 0.19
v 0 5.8 0 0.36 0.61 0.29
usemtl leaves
f 9 10 13
f 10 11 13
f 11 12 13
f 12 9 13
f 12 11 10 9
g COL_trunk
f 1 2 6 5
f 2 3 7 6
f 3 4 8 7
f 4 1 5 8
f 5 6 7 8
f 4 3 2 1
